# xmcd
#
# Track frame offsets: 
#        150
#        10236
#        21382
#        32667
#        45076
#        55924
#        65201
#        75609
#        85257
#        100574
#        113122
#        122288
#
# Disc length: 2044 seconds
#
# Revision: 13
# Processed by: cddbd v1.5.2PL0 Copyright (c) Steve Scherf et al.
# Submitted via: ExactAudioCopy v1.0b3
#
DISCID=8907fa0c
DTITLE=Eric Clapton - Eric Clapton
DYEAR=1997
DGENRE=Blues
TTITLE0=I'm Your Witchdoctor (John Mayall's Bluesbreakers feat. Eric C
TTITLE0=lapton)
TTITLE1=For Your Love (The Yardbirds with Eric Clapton)
TTITLE2=Boom Boom (The Yardbirds feat. Eric Clapton)
TTITLE3=Good Morning Little Schoolgirl (The Yardbirds with Eric Clapto
TTITLE3=n)
TTITLE4=Miles Road (Eric Clapton and Jimmy Page)
TTITLE5=I Ain't Got You (The Yardbirds with Eric Clapton)
TTITLE6=A Certain Girl (The Yardbirds with Eric Clapton)
TTITLE7=Tribute To Elmore (Eric Clapton and Jimmy Page)
TTITLE8=Train Kept A Rolling (The Yardbirds with Eric Clapton)
TTITLE9=Freight Loader (The Eric Clapton)
TTITLE10=Talking About You (The Yardbirds feat. Eric Clapton)
TTITLE11=Smokestack Lightning (The Yardbirds feat. Eric Clapton)
EXTD=
EXTT0=
EXTT1=
EXTT2=
EXTT3=
EXTT4=
EXTT5=
EXTT6=
EXTT7=
EXTT8=
EXTT9=
EXTT10=
EXTT11=
PLAYORDER=
